<svg xmlns="http://www.w3.org/2000/svg" viewBox="0 0 1024 1024" width="1024" height="1024">
<rect width="1024" height="1024" rx="229.07" ry="229.07" fill="#0E1A15"/>
<polygon points="509.39,532.12 516.59,385.10 561.15,394.86 537.06,539.29" fill="#007E54" stroke="#007E54" stroke-width="2.97" stroke-linejoin="round"/>
<polygon points="482.37,527.33 473.71,379.12 518.15,385.49 510.95,532.51" fill="#007E54" stroke="#007E54" stroke-width="2.97" stroke-linejoin="round"/>
<polygon points="535.60,538.80 559.68,394.37 603.20,407.49 561.73,547.84" fill="#007E54" stroke="#007E54" stroke-width="2.97" stroke-linejoin="round"/>
<polygon points="510.95,532.51 482.37,527.33 478.69,534.15 507.27,539.33" fill="#069D60" stroke="#069D60" stroke-width="2.97" stroke-linejoin="round"/>
<polygon points="537.06,539.29 509.39,532.12 508.83,539.72 536.50,546.89" fill="#069D60" stroke="#069D60" stroke-width="2.97" stroke-linejoin="round"/>
<polygon points="455.18,524.47 432.11,376.35 475.32,379.40 483.99,527.61" fill="#007E54" stroke="#007E54" stroke-width="2.97" stroke-linejoin="round"/>
<polygon points="483.99,527.61 455.18,524.47 448.26,530.73 477.07,533.86" fill="#069D60" stroke="#069D60" stroke-width="2.97" stroke-linejoin="round"/>
<polygon points="561.73,547.84 535.60,538.80 537.97,547.38 564.10,556.41" fill="#069D60" stroke="#069D60" stroke-width="2.97" stroke-linejoin="round"/>
<polygon points="560.39,547.27 601.86,406.92 643.22,423.31 584.39,558.03" fill="#007E54" stroke="#007E54" stroke-width="2.97" stroke-linejoin="round"/>
<polygon points="456.81,524.64 428.47,523.56 418.28,529.48 446.62,530.56" fill="#069D60" stroke="#069D60" stroke-width="2.97" stroke-linejoin="round"/>
<polygon points="428.47,523.56 392.82,376.62 433.74,376.51 456.81,524.64" fill="#007E54" stroke="#007E54" stroke-width="2.97" stroke-linejoin="round"/>
<polygon points="584.39,558.03 560.39,547.27 565.44,556.99 589.44,567.75" fill="#069D60" stroke="#069D60" stroke-width="2.97" stroke-linejoin="round"/>
<polygon points="583.21,557.38 642.05,422.67 680.16,442.14 604.56,569.67" fill="#006F4E" stroke="#006F4E" stroke-width="2.97" stroke-linejoin="round"/>
<polygon points="430.07,523.61 402.90,524.55 389.52,530.38 416.69,529.43" fill="#069D60" stroke="#069D60" stroke-width="2.97" stroke-linejoin="round"/>
<polygon points="604.56,569.67 583.21,557.38 590.61,568.39 611.96,580.68" fill="#069D60" stroke="#069D60" stroke-width="2.97" stroke-linejoin="round"/>
<polygon points="402.90,524.55 356.80,379.70 394.42,376.67 430.07,523.61" fill="#007E54" stroke="#007E54" stroke-width="2.97" stroke-linejoin="round"/>
<polygon points="404.42,524.49 379.13,527.37 362.72,533.33 388.01,530.44" fill="#008D5B" stroke="#008D5B" stroke-width="2.97" stroke-linejoin="round"/>
<polygon points="603.56,568.97 679.16,441.45 713.02,463.74 621.80,582.57" fill="#006F4E" stroke="#006F4E" stroke-width="2.97" stroke-linejoin="round"/>
<polygon points="621.80,582.57 603.56,568.97 612.95,581.38 631.19,594.97" fill="#069D60" stroke="#069D60" stroke-width="2.97" stroke-linejoin="round"/>
<polygon points="379.13,527.37 324.90,385.29 358.32,379.63 404.42,524.49" fill="#007E54" stroke="#007E54" stroke-width="2.97" stroke-linejoin="round"/>
<polygon points="635.76,596.49 621.00,581.84 631.99,595.71 646.75,610.37" fill="#008D5B" stroke="#008D5B" stroke-width="2.97" stroke-linejoin="round"/>
<polygon points="621.00,581.84 712.21,463.00 740.89,487.76 635.76,596.49" fill="#006F4E" stroke="#006F4E" stroke-width="2.97" stroke-linejoin="round"/>
<polygon points="307.10,391.43 278.66,399.35 297.85,393.03 326.29,385.11" fill="#D9F9C1" stroke="#D9F9C1" stroke-width="2.97" stroke-linejoin="round"/>
<polygon points="357.77,531.87 297.85,393.03 326.29,385.11 380.52,527.19" fill="#008D5B" stroke="#008D5B" stroke-width="2.97" stroke-linejoin="round"/>
<polygon points="646.17,611.19 635.16,595.74 647.35,611.12 658.36,626.57" fill="#008D5B" stroke="#008D5B" stroke-width="2.97" stroke-linejoin="round"/>
<polygon points="635.16,595.74 740.29,487.01 763.01,513.82 646.17,611.19" fill="#007E54" stroke="#007E54" stroke-width="2.97" stroke-linejoin="round"/>
<polygon points="339.41,537.88 276.24,402.52 299.07,392.75 358.99,531.59" fill="#008D5B" stroke="#008D5B" stroke-width="2.97" stroke-linejoin="round"/>
<polygon points="791.70,558.35 775.59,529.95 762.61,513.07 778.72,541.48" fill="#D9F9C1" stroke="#D9F9C1" stroke-width="2.97" stroke-linejoin="round"/>
<polygon points="277.44,399.63 254.61,409.40 276.24,402.52 299.07,392.75" fill="#BFEDA8" stroke="#BFEDA8" stroke-width="2.97" stroke-linejoin="round"/>
<polygon points="645.77,610.44 762.61,513.07 778.72,541.48 652.84,626.41" fill="#008D5B" stroke="#008D5B" stroke-width="2.97" stroke-linejoin="round"/>
<polygon points="513.49,271.47 507.25,204.66 511.93,179.20 518.17,246.00" fill="#006F4E" stroke="#006F4E" stroke-width="2.97" stroke-linejoin="round"/>
<polygon points="512.61,271.27 506.37,204.47 536.03,210.14 555.18,282.52" fill="#069D60" stroke="#069D60" stroke-width="2.97" stroke-linejoin="round"/>
<polygon points="553.44,282.00 534.29,209.62 563.56,217.54 593.82,296.24" fill="#069D60" stroke="#069D60" stroke-width="2.97" stroke-linejoin="round"/>
<polygon points="324.56,545.17 260.51,413.32 277.25,402.15 340.41,537.51" fill="#069D60" stroke="#069D60" stroke-width="2.97" stroke-linejoin="round"/>
<polygon points="592.12,295.58 561.86,216.88 590.02,227.04 629.32,312.57" fill="#069D60" stroke="#069D60" stroke-width="2.97" stroke-linejoin="round"/>
<polygon points="800.94,588.57 791.91,559.08 778.51,540.75 787.54,570.23" fill="#BFEDA8" stroke="#BFEDA8" stroke-width="2.97" stroke-linejoin="round"/>
<polygon points="652.63,625.68 778.51,540.75 787.54,570.23 655.66,641.86" fill="#069D60" stroke="#069D60" stroke-width="2.97" stroke-linejoin="round"/>
<polygon points="253.61,409.77 236.87,420.93 260.51,413.32 277.25,402.15" fill="#A2E291" stroke="#A2E291" stroke-width="2.97" stroke-linejoin="round"/>
<polygon points="627.70,311.77 588.41,226.24 614.73,238.54 660.83,331.23" fill="#069D60" stroke="#069D60" stroke-width="2.97" stroke-linejoin="round"/>
<polygon points="659.36,330.29 613.25,237.61 637.04,251.93 687.66,351.86" fill="#008D5B" stroke="#008D5B" stroke-width="2.97" stroke-linejoin="round"/>
<polygon points="313.67,553.49 250.95,424.96 261.27,412.88 325.31,544.73" fill="#45BC68" stroke="#45BC68" stroke-width="2.97" stroke-linejoin="round"/>
<polygon points="655.64,641.16 787.52,569.53 789.17,599.54 654.62,657.29" fill="#2CAC65" stroke="#2CAC65" stroke-width="2.97" stroke-linejoin="round"/>
<polygon points="802.62,619.28 800.96,589.26 787.52,569.53 789.17,599.54" fill="#81D77B" stroke="#81D77B" stroke-width="2.97" stroke-linejoin="round"/>
<polygon points="236.12,421.38 225.80,433.46 250.95,424.96 261.27,412.88" fill="#A2E291" stroke="#A2E291" stroke-width="2.97" stroke-linejoin="round"/>
<polygon points="542.47,185.07 512.81,179.40 506.37,204.47 536.03,210.14" fill="#007E54" stroke="#007E54" stroke-width="2.97" stroke-linejoin="round"/>
<polygon points="686.36,350.80 635.74,250.87 656.34,267.02 709.21,374.06" fill="#008D5B" stroke="#008D5B" stroke-width="2.97" stroke-linejoin="round"/>
<polygon points="573.48,193.51 544.21,185.59 534.29,209.62 563.56,217.54" fill="#007E54" stroke="#007E54" stroke-width="2.97" stroke-linejoin="round"/>
<polygon points="603.34,204.33 575.18,194.18 561.86,216.88 590.02,227.04" fill="#007E54" stroke="#007E54" stroke-width="2.97" stroke-linejoin="round"/>
<polygon points="307.12,562.54 247.66,436.98 251.42,424.47 314.15,552.99" fill="#5CCB6B" stroke="#5CCB6B" stroke-width="2.97" stroke-linejoin="round"/>
<polygon points="654.76,656.64 789.31,598.89 783.49,628.88 649.78,672.42" fill="#45BC68" stroke="#45BC68" stroke-width="2.97" stroke-linejoin="round"/>
<polygon points="631.28,217.44 604.96,205.14 588.41,226.24 614.73,238.54" fill="#008D5B" stroke="#008D5B" stroke-width="2.97" stroke-linejoin="round"/>
<polygon points="708.14,372.90 655.27,265.86 672.08,283.60 725.05,397.42" fill="#008D5B" stroke="#008D5B" stroke-width="2.97" stroke-linejoin="round"/>
<polygon points="656.55,232.70 632.76,218.38 613.25,237.61 637.04,251.93" fill="#069D60" stroke="#069D60" stroke-width="2.97" stroke-linejoin="round"/>
<polygon points="796.66,649.91 802.48,619.93 789.31,598.89 783.49,628.88" fill="#45BC68" stroke="#45BC68" stroke-width="2.97" stroke-linejoin="round"/>
<polygon points="225.32,433.96 221.56,446.47 247.66,436.98 251.42,424.47" fill="#81D77B" stroke="#81D77B" stroke-width="2.97" stroke-linejoin="round"/>
<polygon points="650.06,671.83 783.76,628.28 770.56,657.67 641.30,686.99" fill="#5CCB6B" stroke="#5CCB6B" stroke-width="2.97" stroke-linejoin="round"/>
<polygon points="678.44,249.91 657.84,233.76 635.74,250.87 656.34,267.02" fill="#2CAC65" stroke="#2CAC65" stroke-width="2.97" stroke-linejoin="round"/>
<polygon points="305.16,572.00 250.61,448.90 247.83,436.45 307.29,562.01" fill="#81D77B" stroke="#81D77B" stroke-width="2.97" stroke-linejoin="round"/>
<polygon points="724.24,396.16 671.27,282.35 683.79,301.41 734.89,421.47" fill="#007E54" stroke="#007E54" stroke-width="2.97" stroke-linejoin="round"/>
<polygon points="696.32,268.82 679.51,251.07 655.27,265.86 672.08,283.60" fill="#2CAC65" stroke="#2CAC65" stroke-width="2.97" stroke-linejoin="round"/>
<polygon points="641.69,686.47 770.94,657.15 750.63,685.38 629.41,700.77" fill="#5CCB6B" stroke="#5CCB6B" stroke-width="2.97" stroke-linejoin="round"/>
<polygon points="783.17,679.89 796.38,650.50 783.76,628.28 770.56,657.67" fill="#2CAC65" stroke="#2CAC65" stroke-width="2.97" stroke-linejoin="round"/>
<polygon points="765.52,436.13 717.97,310.52 710.17,290.46 761.27,410.52" fill="#81D77B" stroke="#81D77B" stroke-width="2.97" stroke-linejoin="round"/>
<polygon points="221.38,447.00 224.16,459.44 250.61,448.90 247.83,436.45" fill="#81D77B" stroke="#81D77B" stroke-width="2.97" stroke-linejoin="round"/>
<polygon points="278.85,583.08 224.30,459.98 233.42,471.88 281.79,593.14" fill="#007E54" stroke="#007E54" stroke-width="2.97" stroke-linejoin="round"/>
<polygon points="709.65,289.13 697.13,270.07 671.27,282.35 683.79,301.41" fill="#45BC68" stroke="#45BC68" stroke-width="2.97" stroke-linejoin="round"/>
<polygon points="629.88,700.32 751.09,684.93 724.15,711.50 614.41,713.52" fill="#81D77B" stroke="#81D77B" stroke-width="2.97" stroke-linejoin="round"/>
<polygon points="762.48,708.65 782.79,680.42 770.94,657.15 750.63,685.38" fill="#008D5B" stroke="#008D5B" stroke-width="2.97" stroke-linejoin="round"/>
<polygon points="763.59,462.92 720.96,332.59 718.18,311.88 765.73,437.49" fill="#45BC68" stroke="#45BC68" stroke-width="2.97" stroke-linejoin="round"/>
<polygon points="413.81,759.84 335.49,816.41 296.02,811.46 393.82,756.74" fill="#BFEDA8" stroke="#BFEDA8" stroke-width="2.97" stroke-linejoin="round"/>
<polygon points="717.97,310.52 710.17,290.46 683.27,300.09 691.08,320.15" fill="#5CCB6B" stroke="#5CCB6B" stroke-width="2.97" stroke-linejoin="round"/>
<polygon points="614.92,713.15 724.67,711.12 691.74,735.52 596.66,725.06" fill="#A2E291" stroke="#A2E291" stroke-width="2.97" stroke-linejoin="round"/>
<polygon points="282.25,593.66 233.88,472.40 248.99,483.29 290.31,603.43" fill="#007E54" stroke="#007E54" stroke-width="2.97" stroke-linejoin="round"/>
<polygon points="224.30,459.98 233.42,471.88 259.58,460.26 250.46,448.36" fill="#5CCB6B" stroke="#5CCB6B" stroke-width="2.97" stroke-linejoin="round"/>
<polygon points="435.74,761.39 378.87,818.24 335.47,816.38 413.79,759.80" fill="#BFEDA8" stroke="#BFEDA8" stroke-width="2.97" stroke-linejoin="round"/>
<polygon points="597.19,724.76 692.28,735.22 654.18,757.03 576.58,735.20" fill="#A2E291" stroke="#A2E291" stroke-width="2.97" stroke-linejoin="round"/>
<polygon points="735.07,735.67 762.01,709.10 751.09,684.93 724.15,711.50" fill="#007E54" stroke="#007E54" stroke-width="2.97" stroke-linejoin="round"/>
<polygon points="755.12,489.09 718.39,354.95 720.84,333.97 763.47,464.31" fill="#069D60" stroke="#069D60" stroke-width="2.97" stroke-linejoin="round"/>
<polygon points="720.96,332.59 718.18,311.88 690.87,318.78 693.65,339.49" fill="#81D77B" stroke="#81D77B" stroke-width="2.97" stroke-linejoin="round"/>
<polygon points="459.05,761.31 425.00,816.72 378.77,818.21 435.63,761.36" fill="#BFEDA8" stroke="#BFEDA8" stroke-width="2.97" stroke-linejoin="round"/>
<polygon points="577.11,734.97 654.71,756.81 612.39,775.66 554.65,743.80" fill="#BFEDA8" stroke="#BFEDA8" stroke-width="2.97" stroke-linejoin="round"/>
<polygon points="291.09,603.91 249.77,483.77 270.39,493.25 304.19,612.99" fill="#008D5B" stroke="#008D5B" stroke-width="2.97" stroke-linejoin="round"/>
<polygon points="483.20,759.52 472.69,811.70 424.81,816.70 458.85,761.30" fill="#BFEDA8" stroke="#BFEDA8" stroke-width="2.97" stroke-linejoin="round"/>
<polygon points="555.14,743.64 612.88,775.50 567.40,791.11 531.37,750.77" fill="#BFEDA8" stroke="#BFEDA8" stroke-width="2.97" stroke-linejoin="round"/>
<polygon points="233.88,472.40 248.99,483.29 274.23,470.63 259.12,459.74" fill="#5CCB6B" stroke="#5CCB6B" stroke-width="2.97" stroke-linejoin="round"/>
<polygon points="299.97,837.92 339.44,842.88 335.49,816.41 296.02,811.46" fill="#008D5B" stroke="#008D5B" stroke-width="2.97" stroke-linejoin="round"/>
<polygon points="507.64,755.97 520.71,803.11 472.40,811.71 482.92,759.53" fill="#BFEDA8" stroke="#BFEDA8" stroke-width="2.97" stroke-linejoin="round"/>
<polygon points="531.81,750.67 567.84,791.01 520.34,803.17 507.27,756.02" fill="#BFEDA8" stroke="#BFEDA8" stroke-width="2.97" stroke-linejoin="round"/>
<polygon points="701.64,760.44 734.56,736.04 724.67,711.12 691.74,735.52" fill="#007E54" stroke="#007E54" stroke-width="2.97" stroke-linejoin="round"/>
<polygon points="718.39,354.95 720.84,333.97 693.76,338.10 691.32,359.09" fill="#A2E291" stroke="#A2E291" stroke-width="2.97" stroke-linejoin="round"/>
<polygon points="740.45,514.16 710.21,377.20 717.94,356.33 754.67,490.47" fill="#008D5B" stroke="#008D5B" stroke-width="2.97" stroke-linejoin="round"/>
<polygon points="305.27,613.40 271.47,493.67 296.96,501.35 323.22,621.42" fill="#008D5B" stroke="#008D5B" stroke-width="2.97" stroke-linejoin="round"/>
<polygon points="339.46,842.91 382.87,844.77 378.87,818.24 335.47,816.38" fill="#069D60" stroke="#069D60" stroke-width="2.97" stroke-linejoin="round"/>
<polygon points="663.01,782.55 701.10,760.74 692.28,735.22 654.18,757.03" fill="#008D5B" stroke="#008D5B" stroke-width="2.97" stroke-linejoin="round"/>
<polygon points="249.77,483.77 270.39,493.25 294.07,479.63 273.45,470.15" fill="#5CCB6B" stroke="#5CCB6B" stroke-width="2.97" stroke-linejoin="round"/>
<polygon points="710.21,377.20 717.94,356.33 691.76,357.71 684.03,378.57" fill="#A2E291" stroke="#A2E291" stroke-width="2.97" stroke-linejoin="round"/>
<polygon points="720.04,537.68 696.49,398.90 709.44,378.54 739.68,515.50" fill="#007E54" stroke="#007E54" stroke-width="2.97" stroke-linejoin="round"/>
<polygon points="382.98,844.80 429.21,843.31 425.00,816.72 378.77,818.21" fill="#069D60" stroke="#069D60" stroke-width="2.97" stroke-linejoin="round"/>
<polygon points="620.16,801.63 662.48,782.78 654.71,756.81 612.39,775.66" fill="#008D5B" stroke="#008D5B" stroke-width="2.97" stroke-linejoin="round"/>
<polygon points="324.58,621.75 298.32,501.68 327.96,507.26 347.04,628.35" fill="#069D60" stroke="#069D60" stroke-width="2.97" stroke-linejoin="round"/>
<polygon points="696.49,398.90 709.44,378.54 684.80,377.23 671.85,397.59" fill="#BFEDA8" stroke="#BFEDA8" stroke-width="2.97" stroke-linejoin="round"/>
<polygon points="429.41,843.32 477.29,838.31 472.69,811.70 424.81,816.70" fill="#069D60" stroke="#069D60" stroke-width="2.97" stroke-linejoin="round"/>
<polygon points="574.18,817.40 619.66,801.79 612.88,775.50 567.40,791.11" fill="#008D5B" stroke="#008D5B" stroke-width="2.97" stroke-linejoin="round"/>
<polygon points="694.54,559.27 677.43,419.64 695.41,400.18 718.97,538.96" fill="#007E54" stroke="#007E54" stroke-width="2.97" stroke-linejoin="round"/>
<polygon points="271.47,493.67 296.96,501.35 318.48,486.90 292.99,479.22" fill="#5CCB6B" stroke="#5CCB6B" stroke-width="2.97" stroke-linejoin="round"/>
<polygon points="477.57,838.30 525.88,829.71 520.71,803.11 472.40,811.71" fill="#069D60" stroke="#069D60" stroke-width="2.97" stroke-linejoin="round"/>
<polygon points="526.25,829.66 573.74,817.50 567.84,791.01 520.34,803.17" fill="#069D60" stroke="#069D60" stroke-width="2.97" stroke-linejoin="round"/>
<polygon points="348.64,628.57 329.56,507.48 362.51,510.69 375.15,633.40" fill="#069D60" stroke="#069D60" stroke-width="2.97" stroke-linejoin="round"/>
<polygon points="677.43,419.64 695.41,400.18 672.92,396.30 654.95,415.76" fill="#BFEDA8" stroke="#BFEDA8" stroke-width="2.97" stroke-linejoin="round"/>
<polygon points="664.65,578.59 653.41,439.03 676.07,420.85 693.18,560.47" fill="#008D5B" stroke="#008D5B" stroke-width="2.97" stroke-linejoin="round"/>
<polygon points="298.32,501.68 327.96,507.26 346.76,492.16 317.12,486.58" fill="#5CCB6B" stroke="#5CCB6B" stroke-width="2.97" stroke-linejoin="round"/>
<polygon points="376.97,633.50 364.33,510.79 399.70,511.45 406.95,636.27" fill="#069D60" stroke="#069D60" stroke-width="2.97" stroke-linejoin="round"/>
<polygon points="631.23,595.37 624.90,456.69 651.80,440.13 663.04,579.69" fill="#008D5B" stroke="#008D5B" stroke-width="2.97" stroke-linejoin="round"/>
<polygon points="653.41,439.03 676.07,420.85 656.31,414.56 633.64,432.75" fill="#BFEDA8" stroke="#BFEDA8" stroke-width="2.97" stroke-linejoin="round"/>
<polygon points="329.56,507.48 362.51,510.69 378.10,495.16 345.15,491.94" fill="#5CCB6B" stroke="#5CCB6B" stroke-width="2.97" stroke-linejoin="round"/>
<polygon points="408.93,636.22 401.68,511.40 438.54,509.40 441.72,636.68" fill="#069D60" stroke="#069D60" stroke-width="2.97" stroke-linejoin="round"/>
<polygon points="595.17,609.41 592.55,472.29 623.09,457.66 629.41,596.35" fill="#008D5B" stroke="#008D5B" stroke-width="2.97" stroke-linejoin="round"/>
<polygon points="624.90,456.69 651.80,440.13 635.25,431.65 608.36,448.22" fill="#BFEDA8" stroke="#BFEDA8" stroke-width="2.97" stroke-linejoin="round"/>
<polygon points="443.81,636.48 440.62,509.20 478.02,504.49 478.65,634.40" fill="#069D60" stroke="#069D60" stroke-width="2.97" stroke-linejoin="round"/>
<polygon points="557.43,620.56 557.07,485.54 590.56,473.12 593.19,610.24" fill="#069D60" stroke="#069D60" stroke-width="2.97" stroke-linejoin="round"/>
<polygon points="480.79,634.04 480.17,504.12 517.16,496.73 516.83,629.28" fill="#069D60" stroke="#069D60" stroke-width="2.97" stroke-linejoin="round"/>
<polygon points="518.98,628.76 519.30,496.21 554.98,486.22 555.34,621.24" fill="#069D60" stroke="#069D60" stroke-width="2.97" stroke-linejoin="round"/>
<polygon points="364.33,510.79 399.70,511.45 411.66,495.73 376.28,495.07" fill="#81D77B" stroke="#81D77B" stroke-width="2.97" stroke-linejoin="round"/>
<polygon points="592.55,472.29 623.09,457.66 610.17,447.24 579.63,461.87" fill="#BFEDA8" stroke="#BFEDA8" stroke-width="2.97" stroke-linejoin="round"/>
<polygon points="401.68,511.40 438.54,509.40 446.54,493.78 409.68,495.78" fill="#81D77B" stroke="#81D77B" stroke-width="2.97" stroke-linejoin="round"/>
<polygon points="557.07,485.54 590.56,473.12 581.62,461.04 548.12,473.45" fill="#BFEDA8" stroke="#BFEDA8" stroke-width="2.97" stroke-linejoin="round"/>
<polygon points="440.62,509.20 478.02,504.49 481.84,489.27 444.45,493.98" fill="#A2E291" stroke="#A2E291" stroke-width="2.97" stroke-linejoin="round"/>
<polygon points="519.30,496.21 554.98,486.22 550.21,472.77 514.54,482.76" fill="#BFEDA8" stroke="#BFEDA8" stroke-width="2.97" stroke-linejoin="round"/>
<polygon points="480.17,504.12 517.16,496.73 516.69,482.24 479.70,489.63" fill="#A2E291" stroke="#A2E291" stroke-width="2.97" stroke-linejoin="round"/>
</svg>